<svg xmlns="http://www.w3.org/2000/svg" xmlns:xlink="http://www.w3.org/1999/xlink" xml:space="preserve" fill-rule="evenodd" stroke-linecap="round" stroke-linejoin="round" viewBox="0 0 978 768">
  <defs>
    <linearGradient id="a">
      <stop offset=".304" style="stop-color:#798184;stop-opacity:1"/>
      <stop offset="1" style="stop-color:#bdbec0;stop-opacity:1"/>
    </linearGradient>
    <linearGradient id="d">
      <stop offset="0" style="stop-color:#05152e;stop-opacity:0"/>
      <stop offset="1" style="stop-color:#05152e;stop-opacity:0"/>
    </linearGradient>
    <linearGradient id="b">
      <stop offset=".22" style="stop-color:#dadada;stop-opacity:1"/>
      <stop offset=".654" style="stop-color:#9b9fa2;stop-opacity:1"/>
      <stop offset="1" style="stop-color:#798184;stop-opacity:1"/>
    </linearGradient>
    <linearGradient xlink:href="#a" id="q" x1="794.612" x2="815.769" y1="345.592" y2="345.592" gradientUnits="userSpaceOnUse"/>
    <linearGradient xlink:href="#a" id="p" x1="794.539" x2="815.77" y1="308.424" y2="308.424" gradientUnits="userSpaceOnUse"/>
    <linearGradient xlink:href="#a" id="o" x1="739.624" x2="761.771" y1="388.556" y2="388.556" gradientUnits="userSpaceOnUse"/>
    <linearGradient xlink:href="#a" id="n" x1="739.633" x2="761.687" y1="173.556" y2="173.556" gradientUnits="userSpaceOnUse"/>
    <linearGradient xlink:href="#a" id="m" x1="684.691" x2="706.848" y1="414.936" y2="414.936" gradientUnits="userSpaceOnUse"/>
    <linearGradient xlink:href="#a" id="l" x1="684.693" x2="706.784" y1="147.046" y2="147.046" gradientUnits="userSpaceOnUse"/>
    <linearGradient xlink:href="#a" id="k" x1="629.768" x2="651.922" y1="432.085" y2="432.085" gradientUnits="userSpaceOnUse"/>
    <linearGradient xlink:href="#a" id="j" x1="629.77" x2="651.922" y1="120.628" y2="120.628" gradientUnits="userSpaceOnUse"/>
    <linearGradient xlink:href="#a" id="i" x1="574.232" x2="597" y1="443.893" y2="443.893" gradientUnits="userSpaceOnUse"/>
    <linearGradient xlink:href="#a" id="h" x1="574.848" x2="597" y1="94.351" y2="94.351" gradientUnits="userSpaceOnUse"/>
    <linearGradient xlink:href="#a" id="g" x1="519.924" x2="542.076" y1="450.461" y2="450.461" gradientUnits="userSpaceOnUse"/>
    <linearGradient xlink:href="#a" id="f" x1="519.923" x2="542.077" y1="68.057" y2="68.057" gradientUnits="userSpaceOnUse"/>
    <linearGradient xlink:href="#d" id="c" x1="356.101" x2="1170.499" y1="389.899" y2="389.899" gradientUnits="userSpaceOnUse"/>
    <radialGradient xlink:href="#b" id="r" cx="651.308" cy="184.944" r="147.923" fx="651.308" fy="184.944" gradientTransform="matrix(1.19663 -1.26699 .86394 .81596 -326.475 854.07)" gradientUnits="userSpaceOnUse"/>
    <clipPath id="s">
      <path d="M0 768h1024V0H0Z"/>
    </clipPath>
    <mask id="e" maskUnits="userSpaceOnUse">
      <g style="display:inline">
        <path d="M114-17h1187v838H114z" style="fill:#f3f3f3;fill-opacity:1;fill-rule:evenodd;stroke:#fff;stroke-width:.462;stroke-opacity:1"/>
        <path d="M446.622 469.78c-6.252-12.46-29.095-58.6-50.76-102.533l-39.393-79.88h95.289l20.548 42.247c11.302 23.236 21.105 41.893 21.784 41.46.68-.432 10.525-19.443 21.878-42.246l20.64-41.46h633.524V492.431h-712.14Z" style="fill:#000;fill-opacity:1;fill-rule:evenodd;stroke:url(#c);stroke-width:.734417;stroke-opacity:0"/>
      </g>
    </mask>
  </defs>
  <g mask="url(#e)" style="display:inline" transform="translate(-178 2)">
    <path d="m530.654 123.318-10.73-4.45.011-49.395.012-49.396 10.8-5.885c5.94-3.236 10.92-5.884 11.065-5.884.146 0 .265 26.896.265 59.769s-.156 59.751-.346 59.73c-.19-.022-5.175-2.042-11.077-4.489z" style="fill:url(#f);stroke-width:.462;stroke-dasharray:none;fill-opacity:1"/>
    <path d="M520.084 141.23c-.089 0-.16 139.154-.16 309.23 0 170.078.125 309.231.277 309.231.356 0 17.854-9.49 20.145-10.925l1.73-1.084V148.699l-2.652-.916c-7.378-2.548-19.198-6.553-19.34-6.553z" style="fill:url(#g);stroke-width:.461538;fill-opacity:1"/>
    <path d="m597 38.275-1.037.545c-.571.3-5.557 3.225-11.078 6.5l-10.037 5.955.004 45.094.004 45.092 10.726 4.465c5.9 2.455 10.882 4.48 11.072 4.5.19.02.346-25.206.346-56.057z" style="fill:url(#h);stroke-width:.461538;fill-opacity:1"/>
    <path d="m574.846 159.764-.002 258.54c-.001 142.198-.14 270.057-.307 284.13l-.305 25.587 5.268-3.628c2.898-1.995 8.021-5.586 11.385-7.979l6.115-4.35V167.156l-11.076-3.695z" style="fill:url(#i);stroke-width:.461538;fill-opacity:1"/>
    <path d="m651.922 68.232-1.5.905c-.825.497-5.809 3.446-11.076 6.552l-9.576 5.649.002 41.369.004 41.37 10.726 4.446c5.9 2.446 10.884 4.471 11.074 4.5.19.03.346-23.536.346-52.369z" style="fill:url(#j);stroke-width:.461538;fill-opacity:1"/>
    <path d="M629.77 178.324v253.76h-.002c0 139.569.098 253.762.218 253.762.309 0 11.076-9.452 16.975-14.903l4.96-4.584-.001-240.295-.002-240.294-11.074-3.723z" style="fill:url(#k);stroke-width:.461538;fill-opacity:1"/>
    <path d="m706.615 98.459-10.96 6.502-10.962 6.5.004 37.615.006 37.615 10.955 4.471 10.957 4.47.12-24.466c.065-13.457.065-35.322 0-48.588z" style="fill:url(#l);stroke-width:.461538;fill-opacity:1"/>
    <path d="M685.27 197.102c-.461-.02-.579 43.839-.579 217.822 0 119.815.08 217.846.176 217.846.263 0 11.455-12.826 17.047-19.536l4.934-5.92-.118-201.49-.115-201.49-10.385-3.604c-5.711-1.981-10.643-3.614-10.96-3.628z" style="fill:url(#m);stroke-width:.461538;fill-opacity:1"/>
    <path d="M761.57 128.879c-.111-.112-5.09 2.673-11.066 6.19l-10.865 6.392-.002 33.924-.004 33.924 10.953 4.462 10.951 4.465.12-44.578c.064-24.517.025-44.668-.087-44.78z" style="fill:url(#n);stroke-width:.461538;fill-opacity:1"/>
    <path d="M740.424 215.734c-.768-.245-.809 8.208-.799 173.196.01 167.81.04 173.42.852 172.363 1.386-1.803 13.04-20.57 17.31-27.879l3.984-6.816-.117-151.914-.115-151.913-10.154-3.388a3505.234 3505.234 0 0 0-10.961-3.649z" style="fill:url(#o);stroke-width:.461538;fill-opacity:1"/>
    <path d="M815.46 158.309c-.169 0-4.946 2.748-10.614 6.107l-10.307 6.107.008 30.7.01 30.7 7.953 3.202c16.35 6.584 17.034 7.299 2.266 2.365l-10.237-3.42.02 112.235.02 112.234 1.619-3.924c4.95-12.001 12.239-32.862 16.826-48.15l2.746-9.15V277.81c0-65.727-.139-119.502-.309-119.502z" style="fill:url(#p);stroke-width:.461538;fill-opacity:1"/>
    <path d="M794.789 345.72c-.19-60.972-.234-110.967-.1-111.101.134-.135 4.361 1.111 9.393 2.768 5.032 1.656 9.583 3.133 10.113 3.281.946.265.969.562 1.268 16.532.168 8.944.305 44.004.306 77.911v61.65l-3.2 10.35c-5.156 16.676-11.723 35.48-16.33 46.754l-1.107 2.71z" style="fill:url(#q);fill-opacity:1;stroke-width:.461538"/>
    <g style="fill:url(#r);fill-opacity:1">
      <path d="m553.27 132.605-10.732-4.431V68.24c0-32.963.127-59.933.28-59.933.155 0 5.134 2.648 11.066 5.884l10.785 5.885.012 58.5c.006 32.175-.144 58.49-.335 58.48-.19-.011-5.175-2.014-11.077-4.452zM542.538 448.154c0-164.492.151-299.077.336-299.077.185 0 5.17 1.606 11.077 3.57l10.741 3.569v577.973l-7.5 4.597c-8.618 5.283-14.005 8.445-14.388 8.445-.146 0-.266-134.585-.266-299.077zM608.192 155.197l-10.73-4.444V94.53c0-30.922.155-56.207.346-56.19.19.019 5.123 2.667 10.961 5.885l10.616 5.852.117 54.808c.064 30.144-.04 54.796-.23 54.782-.192-.014-5.178-2.025-11.08-4.47zM597.462 439.644c0-149.658.08-272.106.177-272.106.098 0 5.03 1.632 10.961 3.626l10.785 3.625.115 259.904.116 259.904-4.27 3.392c-2.348 1.866-7.333 5.725-11.077 8.577l-6.807 5.185zM663.115 177.794l-10.73-4.443v-52.522c0-28.887.063-52.521.14-52.521.076 0 5.009 2.666 10.96 5.925l10.823 5.925.117 51.075c.065 28.091-.04 51.059-.23 51.04-.192-.02-5.178-2.035-11.08-4.479zM652.385 425.72c0-191.655.115-239.778.577-239.618.317.11 5.301 1.819 11.076 3.796l10.5 3.595v450.61l-10.753 10.718c-5.914 5.894-10.899 10.717-11.077 10.717-.178 0-.323-107.918-.323-239.818zM718.038 200.395l-10.73-4.45v-97.72l3.577 1.948c1.967 1.072 6.952 3.804 11.077 6.073l7.5 4.124v47.277c0 26.002-.156 47.258-.347 47.237-.19-.022-5.175-2.042-11.077-4.489zM707.318 405.613l-.01-201.08 11.077 3.697 11.077 3.695v365.591l-5.14 6.973c-4.264 5.782-12.957 17.167-16.196 21.208-.756.943-.798-9.489-.808-200.084zM772.962 223l-10.731-4.447V128.22l2.423 1.363c1.333.75 6.317 3.49 11.077 6.087l8.654 4.723v43.573c0 23.965-.156 43.552-.347 43.526-.19-.026-5.175-2.047-11.076-4.493zM762.23 374.28V223.126l11.077 3.707 11.077 3.706v252.017l-6.913 13.98c-6.252 12.64-13.033 25.616-14.628 27.99-.51.758-.612-24.577-.612-150.244zM816.23 276.264V157.758l1.962 1.13c1.08.62 6.064 3.365 11.077 6.098l9.116 4.97-.004 35.137c-.004 34.242-.426 55.222-1.393 69.292-2.048 29.801-6.167 59.06-12.227 86.855-2.112 9.685-7.905 32.904-8.311 33.31-.12.12-.219-53.108-.219-118.286z" style="fill:url(#r);fill-opacity:1;stroke-width:.461538"/>
    </g>
    <g fill="none" stroke="#fff" stroke-width=".1" clip-path="url(#s)">
      <path stroke="none" d="m542.299 7.529-22.777 12.469m210.401 191.837-22.777-7.699m77.727 26.275-22.778-7.7m-142.07-48.026-22.777-7.7m-32.172-10.875-22.777-7.7m132.675 44.85-22.777-7.699m162.976 55.092-20.906-8.599m-229.191-94.278V19.998m54.949 140.381v-110.3m109.898 155.507v-95.347m-54.949 72.744V80.159m9.395 106.688v-75.579m54.949 98.183v-68.102m-64.344 41.634-22.777-9.37m-22.777-9.369V81.188m155.453 147.001v-87.87m-54.95 65.267-22.777-9.369m-132.694-54.584.019-90.525m219.796 180.946v-61.751m-174.242-9.924-22.777-9.369m-32.172-13.234-22.777-9.369m-22.777-9.37V19.998m295.651 220.655-20.906-7.066m21.789-76.197 22.394 12.259m-76.355-41.798 22.778 12.468M652.197 67.69l22.777 12.469m32.172 17.611 22.777 12.469M542.299 7.529l22.777 12.469m32.172 17.612 22.777 12.469M816.056 157.39l-21.789 12.913M597.248 37.61l-22.777 13.498m100.503 592.868V193.26M629.42 686.865V177.861m54.949 456.05V196.436M574.333 728.233l.116-568.955m219.818 301.027V233.587M565.076 734.236V156.11m219.797 325.829V230.411M620.025 694.658V174.685M519.522 760.471V140.71m132.675-73.02L629.42 81.188m45.554 562.788-1.25 1.316m65.594-81.668V215.011M565.076 734.236l-2.85 1.816m57.799-41.394-4.894 3.934m114.792-121.291-1.046 1.487m55.996-96.849-1.646 3.587m55.223-258.542v-57.335M729.923 577.301V211.835m32.172-83.984-22.777 13.498M707.146 97.77l-22.777 13.498M802.56 438.951l-2.517 6.752m34.304-139.616-.899 7.15m1.71-14.31-.811 7.16M720.371 590.422l-4.36 5.738m88.984-163.992-2.435 6.783m-49.9 103.739-3.78 6.136m60.735-130.309-2.269 6.839m17.381-62.45-1.592 7.028M597.957 711.722l-.709.515m45.401-36.895-5.389 4.784m78.751-83.966-4.428 5.685M531.156 754.286l-6.345 3.418m0 0-5.289 2.767m144.09-104.91-5.15 5.041m34.722-36.571-4.767 5.404M562.226 736.052l-6.124 3.798m75.71-55.007-2.392 2.022m7.84-6.739-5.448 4.717m205.716-414.641-.461 7.192M537.458 750.792l-6.302 3.494m228.836-224.003-3.628 6.226m63.333-152.579-1.848 6.966m-17.806 54.807-2.6 6.721m36.005-139.187-.985 7.139M776.98 498.514l-3.242 6.436m64.756-263.554-.11 7.206M668.699 650.457l-5.087 5.104M830.23 334.614l-1.246 7.098m-83.957 213.203-3.928 6.042m76.75-170.061-1.793 6.442m-18.613 55.086-2.681 6.689M609.46 703.039l-5.725 4.376m84.682-77.98-4.048 4.476m95.774-141.872-3.163 6.475M702.518 613.05l-4.633 5.519m-49.905 51.924-5.331 4.849m195.252-412.336-.373 7.196M543.717 747.22l-1.418.809m295.888-492.224-.286 7.201M673.724 645.292l-5.025 5.165M838.45 226.984l.066 7.206m-64.778 270.76-3.32 6.395m43.483-106.589-2.101 6.893M603.735 707.415l-5.778 4.307m196.805-252.609-.495 1.192m13.079-34.949-2.351 6.812m33.521-197.978-.022 7.206m-2.612 50.361-.724 7.17m-8.926 56.932-1.505 7.047M767.019 517.7l-3.475 6.313m-56.459 83.462-4.567 5.575M586.246 720.122l-5.932 4.092m256.204-439.635-.636 7.178m-94.783 269.2-1.781 2.667m-41.433 54.945-4.701 5.462m139.279-303.655-1.073 7.126M549.932 743.573l-6.215 3.647m285.267-405.508-1.333 7.082M658.462 660.602l-5.211 4.977m-97.149 74.271-6.17 3.723M811.8 411.649l-2.185 6.868m-80.738 160.271-4.218 5.843m113.725-336.029-.197 7.203m-6.797 71.697-1.16 7.112M724.659 584.631l-4.288 5.791m43.173-66.409-1.449 2.557m59.364-149.627-1.762 6.987M615.131 698.592l-5.671 4.447m146.904-166.53-3.704 6.181m-3.78 6.136-3.853 6.089m-152.9 161.043-5.881 4.164m67.005-54.543-1.054.983m59.386-64.717-4.498 5.63M542.299 748.029l-4.841 2.763m4.841-2.763V148.41m0 0-22.777-7.7m22.777-12.303-22.777-9.37m22.777 9.37V7.529m54.949 30.081v113.4m0 15.975-22.799-7.707m22.799-8.268-22.796-9.377m22.796 570.604-5.121 3.721m5.121-548.973v545.252M652.197 67.69v105.923m0 11.948-22.777-7.7m22.777-4.248-22.777-9.369m22.777 502.318-4.217 3.931m4.217-484.932v481.001M707.146 97.77v98.447m0 7.919-22.777-7.7m22.777-.219-22.777-9.37m22.777 17.289-.061 403.339m55.01-479.624v90.969m0 3.891-22.777-7.7m22.777 3.809-22.777-9.369m22.777 317.119-2.103 3.713m2.103-307.572V526.57m53.961-369.18v239.948m0 0-.139.5m-31.044-169.649-22.778-9.369m4.924 298.88 3.399-6.355m51.041-134.402 1.676-7.009m-9.234 34.822 2.016-6.918m20.601-113.259.549-7.185M574.333 728.233l5.981-4.019m199.829-232.175 3.084-6.513m43.005-129.667 1.419-7.065M504.448 63.91v53.401m-60.501 50.922 60.501-24.148m-60.501 24.148 60.501-50.922m-11.604 636.975 6.345 3.418m0 0 5.259 2.751m-315.207-590.98-.768 7.165m17.678 214.256 1.932 6.942m0 0 2.016 6.918m0 0 2.101 6.893m-25.001-220.653-.505 7.189m-1.144 28.799-.066 7.206m5.068 79.047.985 7.139m7.736 42.53 1.592 7.028m-15.052-114.129.286 7.201m2.019 28.751.724 7.17m-2.148-100.742-.418 7.194m-.33 7.198-.242 7.203m1.778 64.799.636 7.178m-1.842-86.378-.33 7.198m1.846-28.763-.593 7.182m-.727 79.206.461 7.192m4.604 42.982 1.073 7.126m-6.906-107.722-.154 7.204m8.22 107.63 1.246 7.098m-6.543-165.072-.681 7.174m7.224 157.898 1.333 7.082m1.419 7.065 1.505 7.047m-13.767-121.51.11 7.206m0 0 .197 7.203m3.029 43.122.811 7.16m11.212 63.847 1.676 7.009m-16.442-113.937.373 7.196m.461 7.192.549 7.185m8.867 64.215 1.419 7.065m-5.158-28.357 1.16 7.112m8.771 42.329 1.762 6.987m-18.819-149.74.022 7.206m4.147 64.691.899 7.15m13.751 70.693 1.848 6.966m110.764 216.579 4.567 5.575m44.056 47.552 5.211 4.977m43.791 37.46 5.725 4.376m11.608 8.543 5.881 4.164M232.001 465.768l2.843 6.622m0 0 2.924 6.586m-11.211-26.552 2.681 6.689m106.345 170.322 4.833 5.345M256.981 517.7l3.475 6.313m94.845 126.444 5.087 5.104m37.304 33.933 5.561 4.583m52.444 38.103 6.077 3.872M223.957 445.703l2.6 6.721m33.899 71.589 3.552 6.27m-20.151-38.244 3.163 6.475m103.256 146.778 5.025 5.165m26.05 24.885 5.389 4.784m16.513 13.951 5.616 4.515M271.34 542.69l3.78 6.136M480.283 747.22l6.259 3.572M229.238 459.113l2.763 6.655m128.387 189.793 5.15 5.041M214.385 418.517l2.269 6.839m21.114 53.62 3.005 6.55m23.235 44.757 3.628 6.226m103.113 129.07 5.271 4.914M253.582 511.345l3.399 6.355m55.436 84.145 4.498 5.63m109.128 104.247 5.83 4.236M290.977 572.894l4.146 5.894m142.631 141.334 5.932 4.092m0 0 5.981 4.019M219.005 432.168l2.435 6.783m53.68 109.875 3.853 6.089m3.928 6.042 4.001 5.993m34.58 46.1 4.633 5.519m123.552 109.664 6.03 3.947m6.077 3.872 6.124 3.798m0 0 6.17 3.723M221.44 438.951l2.517 6.752m26.305 59.247 3.32 6.395m50.047 79.077 4.36 5.738m166.079 147.413 6.215 3.647m6.259 3.572 6.302 3.494M326.115 618.569l4.701 5.462m0 0 4.767 5.404m84.682 77.98 5.778 4.307M247.02 498.514l3.242 6.436m-9.489-19.424 3.084 6.513m35.116 62.876 3.928 6.042m57.515 73.823 4.898 5.286m-58.412-73.116 4.075 5.944m17.012 23.266 4.428 5.685m-44.781-65.336 3.704 6.181m-54.686-117.334 2.351 6.812M376.02 670.493l5.331 4.849m5.389 4.784 5.448 4.717m-46.874-44.777 4.962 5.226m41.912 39.551 5.504 4.651m11.177 9.098 5.671 4.447M212.2 411.649l2.185 6.868m80.738 160.271 4.218 5.843m0 0 4.288 5.791m200.819-446.337v616.37M291.535 119.096l26.589-10.34m-78.61 33.754 25.807-12.159m-76.08 39.124 24.902-13.919m51.178-25.205 26.214-11.255m164.018-47.897 28.152-4.62m-269.562 88.977 25.371-13.046m132.783-51.635 27.519-7.521m0 0 27.763-6.561m-109.455 31.963 26.931-9.41m138.65-32.767 20.743-2.669m-76.869 12.883 27.974-5.594M345.055 99.346l27.242-8.471" style="stroke:#05152e;stroke-opacity:0"/>
      <path d="M492.473 753.509c-37.423-20.479-74.016-46.147-107.045-75.086-11.528-10.101-40.07-38.583-50.363-50.259-36.349-41.23-64.204-82.7-88.294-131.449-47.629-96.383-67.734-202.833-58.742-311.018.567-6.82 1.239-13.25 1.493-14.286.404-1.645 2.243-2.873 14.474-9.66 81.753-45.374 170.697-76.518 262.618-91.957 14.564-2.446 33.78-5.173 36.465-5.175 1.07 0 1.14 1.67 1.1 26.271l-.044 26.272-30.337 25.446c-16.686 13.995-30.065 25.537-29.731 25.648.333.111 13.893-5.111 30.132-11.606 16.24-6.494 29.639-11.696 29.775-11.56.137.137.175 138.494.085 307.46l-.164 307.21z" style="fill:#05152e;fill-opacity:1;stroke:#05152e;stroke-width:.0652714;stroke-opacity:1"/>
      <path d="M503.974 168.462c0-.286.022-.403.05-.26.027.143.027.376 0 .52-.028.142-.05.025-.05-.26z" style="fill:#05152e;fill-opacity:1;stroke-width:.0115385"/>
    </g>
  </g>
  <g style="display:inline">
    <path d="M435.92 392.582c-20.62-41.803-37.825-76.677-38.232-77.5l-.74-1.493 19.355.103 19.355.103 28.728 58.221c21.327 43.221 28.917 58.251 29.462 58.338.61.098 5.63-9.8 29.54-58.22l28.805-58.339 19.732-.103 19.732-.103-11.33 22.954c-6.233 12.625-23.436 47.498-38.23 77.495l-26.9 54.541-20.892.004-20.893.004zM604.416 418.91v-49.676h33.78v10.3c0 5.665.109 10.583.241 10.93.218.567 4.232.627 41.43.617l41.19-.01 2.606-.889c11.58-3.948 18.078-15.777 15.088-27.468-1.063-4.156-2.916-7.495-5.772-10.397-2.682-2.726-5.077-4.25-8.813-5.606l-2.55-.925h-117.2v-32.19l58.718.009c56.203.009 58.864.04 62.13.763 7.252 1.604 13.735 4.379 20.193 8.644 4.613 3.046 11.894 10.372 15.088 15.18 9.086 13.68 11.99 29.831 8.15 45.349-4.756 19.225-18.858 34.483-37.597 40.677-6.999 2.314-5.411 2.243-50.481 2.243-31.722 0-41.579.112-41.944.477-.358.359-.477 5.581-.477 21.063v20.586h-33.78z" style="display:inline;fill:#05152e;fill-opacity:1;fill-rule:evenodd;stroke:#05152e;stroke-width:.183604;stroke-opacity:0" transform="translate(-178 2)"/>
    <path d="M785.812 464.911c.945-2.022 5.143-10.561 9.328-18.976l7.61-15.3 49.962-.2 49.962-.198 2.186-1.037c2.708-1.285 4.749-3.254 5.984-5.775 1.296-2.644 1.348-7.44.11-10.137-1.082-2.358-3.67-4.948-6.035-6.042-1.843-.852-1.943-.854-43.178-1.06-40.685-.202-41.378-.219-44.324-1.054-15.52-4.4-26.7-14.283-32.295-28.546-2.337-5.96-2.864-9.029-2.864-16.69 0-7.672.53-10.75 2.871-16.692 5.657-14.356 16.658-24.084 32.288-28.553l2.993-.856 63.72-.106c39.593-.066 63.67.035 63.586.266-.074.206-3.622 7.441-7.884 16.08l-7.75 15.705-50.073.123-50.074.123-1.59.853c-2.241 1.204-4.312 3.337-5.415 5.576-.739 1.5-.943 2.563-.943 4.897 0 4.967 2.448 8.81 6.934 10.887 1.786.826 2.256.839 38.172 1.041l36.363.205 3.555 1.107c16.137 5.028 27.575 15.338 33.44 30.143 3.964 10.002 4.39 22.562 1.12 32.982-4.777 15.226-16.737 27.449-31.86 32.56-7.266 2.457-4.15 2.35-68.67 2.35h-58.948z" style="display:inline;fill:#ef7522;fill-opacity:1;fill-rule:evenodd;stroke:#ef7522;stroke-width:.183604;stroke-opacity:0" transform="translate(-178 2)"/>
    <path d="m1029.864 406.988-.416-61.599-33.754-.429-33.754-.429 7.487-15.07 7.486-15.07h156.636l-7.483 15.064-7.483 15.064-25.491.435-25.492.435-.416 61.6-.416 61.598H1030.28z" style="display:inline;fill:#ef7522;fill-opacity:1;fill-rule:evenodd;stroke:#ef7522;stroke-width:.734417;stroke-opacity:0" transform="translate(-178 2)"/>
  </g>
</svg>