<svg xmlns="http://www.w3.org/2000/svg" viewBox="200 200 365 100">
  <g style="display:inline">
    <path d="M240.082 283.418c-2.836-5.652-13.199-26.584-23.028-46.514l-17.87-36.238h43.228l9.322 19.165c5.127 10.541 9.574 19.005 9.883 18.809.308-.196 4.774-8.82 9.924-19.166l9.364-18.808h287.402v93.028H245.24Z" style="fill:transparent;fill-opacity:1;fill-rule:evenodd;stroke:#05152e;stroke-width:.333173;stroke-opacity:0"/>
  </g>
  <g style="display:inline">
    <path d="M235.227 248.397c-9.354-18.964-17.16-34.785-17.344-35.158l-.336-.678 8.78.047 8.781.047 13.033 26.412c9.675 19.608 13.119 26.426 13.366 26.466.276.044 2.554-4.446 13.4-26.413l13.068-26.465 8.952-.047 8.951-.047-5.14 10.414a157917.85 157917.85 0 0 0-17.343 35.156l-12.203 24.743-9.478.002-9.478.002zm76.44 11.944v-22.536h15.324v4.673c0 2.57.05 4.8.11 4.958.098.257 1.92.284 18.795.28l18.685-.005 1.183-.403c5.253-1.79 8.201-7.157 6.845-12.46-.483-1.886-1.324-3.4-2.619-4.718-1.217-1.236-2.303-1.927-3.998-2.543l-1.157-.42h-53.168v-14.603l26.637.004c25.497.004 26.704.019 28.186.347 3.29.727 6.23 1.986 9.16 3.92 2.093 1.383 5.396 4.706 6.845 6.888 4.123 6.205 5.44 13.533 3.698 20.572-2.158 8.722-8.555 15.644-17.056 18.454-3.175 1.05-2.455 1.017-22.901 1.017-14.391 0-18.863.051-19.028.217-.163.162-.217 2.532-.217 9.555v9.339h-15.324z" style="fill:#05152e;fill-opacity:1;fill-rule:evenodd;stroke:#05152e;stroke-width:.0832933;stroke-opacity:0"/>
    <path d="M393.958 281.21c.429-.918 2.333-4.792 4.232-8.61l3.452-6.94 22.665-.09 22.666-.09.992-.471c1.228-.583 2.154-1.476 2.715-2.62.588-1.2.611-3.375.05-4.599-.491-1.07-1.665-2.244-2.738-2.74-.837-.387-.882-.388-19.589-.481-18.456-.092-18.77-.1-20.107-.479-7.041-1.996-12.113-6.48-14.65-12.95-1.061-2.703-1.3-4.096-1.3-7.572 0-3.48.24-4.876 1.302-7.572 2.566-6.513 7.557-10.926 14.648-12.953l1.357-.388 28.908-.048c17.961-.03 28.884.015 28.846.12-.034.094-1.643 3.376-3.577 7.295l-3.515 7.125-22.717.055-22.716.056-.721.387c-1.017.546-1.957 1.514-2.457 2.53-.335.68-.428 1.162-.428 2.221 0 2.254 1.11 3.998 3.146 4.94.81.374 1.023.38 17.317.472l16.496.093 1.613.502c7.32 2.28 12.51 6.958 15.17 13.675 1.798 4.537 1.992 10.235.508 14.962-2.167 6.907-7.593 12.452-14.453 14.771-3.296 1.115-1.883 1.066-31.153 1.066h-26.742z" style="fill:#ef7522;fill-opacity:1;fill-rule:evenodd;stroke:#ef7522;stroke-width:.0832933;stroke-opacity:0"/>
    <path d="m504.674 254.932-.189-27.944-15.312-.195-15.313-.194 3.396-6.837 3.396-6.837h71.06l-3.395 6.834-3.395 6.834-11.565.197-11.564.198-.189 27.944-.189 27.945h-16.552z" style="fill:#ef7522;fill-opacity:1;fill-rule:evenodd;stroke:#ef7522;stroke-width:.333173;stroke-opacity:0"/>
  </g>
</svg>